<svg width="1440" height="651" viewBox="0 0 1440 651" fill="none" xmlns="http://www.w3.org/2000/svg">
<g filter="url(#filter0_d_17_4)">
<path d="M215.427 143.727C49.7586 307.245 -9.8862 170.88 -19 82.2577V415.59C-19 333.631 420.994 120.239 354.666 333.132C288.338 546.025 487.322 494.051 903.013 435.58C1235.57 388.804 1400.73 522.37 1441.74 595C1459.29 417.256 1483.87 98.9493 1441.74 247.675C1389.08 433.581 1115.67 444.076 1127.31 207.695C1138.96 -28.6866 869.089 100.249 747.066 207.695C625.042 315.141 529.347 219.189 592.131 108.744C654.915 -1.70013 422.513 -60.6705 215.427 143.727Z" fill="#163443" fill-opacity="0.44" shape-rendering="crispEdges"/>
<path d="M-15.021 81.8485L-23 82.2577V415.59H-19H-15C-15 406.924 -9.03866 395.596 2.75353 382.455C14.3792 369.5 31.0433 355.47 51.0096 341.466C90.9272 313.469 143.54 285.925 194.073 267.551C219.333 258.366 243.986 251.505 266.206 248.007C288.482 244.5 308.025 244.419 323.216 248.537C338.273 252.618 348.822 260.728 353.933 273.66C359.136 286.822 359.014 305.73 350.847 331.942C334.2 385.375 333.69 423.616 350.561 449.368C367.477 475.19 400.853 486.936 447.813 490.108C494.951 493.292 557.068 487.914 633.146 478.145C678.585 472.311 729.165 464.886 784.65 456.741C822.082 451.246 861.747 445.424 903.57 439.541C1234.92 392.933 1398.25 526.112 1438.26 596.967L1444.48 607.983L1445.72 595.393C1454.5 506.505 1465.04 382.391 1468.12 299.059C1468.89 278.222 1469.19 259.885 1468.88 245.262C1468.57 230.794 1467.66 219.523 1465.83 213.106C1465.36 211.474 1464.77 209.922 1463.98 208.648C1463.22 207.429 1461.94 205.922 1459.88 205.394C1457.66 204.826 1455.75 205.682 1454.46 206.668C1453.2 207.626 1452.13 208.982 1451.19 210.448C1447.49 216.206 1443.14 228.072 1437.89 246.584C1412.08 337.726 1332.25 385.641 1260.61 382.048C1224.85 380.254 1191.2 365.637 1167.18 337.225C1143.16 308.814 1128.44 266.216 1131.31 207.891C1134.25 148.164 1119.46 110.294 1092.4 89.6796C1065.48 69.1758 1027.61 66.6911 986.538 74.8358C904.342 91.1374 805.745 150.696 744.422 204.693C684.052 257.851 631.855 259.404 602.751 236.771C573.549 214.062 564.803 164.911 595.609 110.721C603.753 96.3932 607.267 82.6221 606.456 69.9001C605.643 57.1429 600.5 45.7367 591.843 36.1868C574.639 17.2072 543.759 5.69399 505.138 4.17301C427.69 1.12294 316.79 38.0602 212.617 140.88C171.427 181.536 137.183 203.181 109.025 211.742C81.0514 220.246 59.0419 215.867 41.7383 204.226C24.2551 192.464 11.1683 173.007 1.86889 150.705C-7.41237 128.446 -12.7736 103.702 -15.021 81.8485Z" stroke="white" stroke-width="8" shape-rendering="crispEdges"/>
</g>
<defs>
<filter id="filter0_d_17_4" x="-27" y="-0.00012207" width="1532" height="650.966" filterUnits="userSpaceOnUse" color-interpolation-filters="sRGB">
<feFlood flood-opacity="0" result="BackgroundImageFix"/>
<feColorMatrix in="SourceAlpha" type="matrix" values="0 0 0 0 0 0 0 0 0 0 0 0 0 0 0 0 0 0 127 0" result="hardAlpha"/>
<feOffset dx="18" dy="16"/>
<feGaussianBlur stdDeviation="7"/>
<feComposite in2="hardAlpha" operator="out"/>
<feColorMatrix type="matrix" values="0 0 0 0 0 0 0 0 0 0 0 0 0 0 0 0 0 0 0.45 0"/>
<feBlend mode="normal" in2="BackgroundImageFix" result="effect1_dropShadow_17_4"/>
<feBlend mode="normal" in="SourceGraphic" in2="effect1_dropShadow_17_4" result="shape"/>
</filter>
</defs>
</svg>
