<svg width="1440" height="809" viewBox="0 0 1440 809" fill="none" xmlns="http://www.w3.org/2000/svg">
<g filter="url(#filter0_d_17_39)">
<path d="M26.0065 418.319C-29.5963 330.99 -83.1657 381.932 -103 418.319V-27H1336.07C1578.25 10.0674 1917.3 178.367 1336.07 555.027C754.844 931.686 700.207 711.968 745.543 555.027C765.377 488.373 757.444 395.059 567.034 555.027C329.022 754.987 318.521 494.325 351.023 418.319C383.525 342.314 227.017 337.723 204.516 418.319C182.014 498.916 95.5101 527.481 26.0065 418.319Z" fill="url(#paint0_linear_17_39)" fill-opacity="0.42" shape-rendering="crispEdges"/>
<path d="M-108.5 418.319L-98.1708 420.952C-88.5174 403.242 -71.1208 382.996 -50.4318 377.223C-40.345 374.409 -29.266 374.959 -17.3848 381.225C-5.35997 387.567 7.77702 399.929 21.3671 421.273C56.6825 476.739 97.4048 498.835 133.476 494.947C169.505 491.063 198.16 461.54 209.813 419.798C220.095 382.971 261.625 364.537 298.312 365.093C316.521 365.369 332.166 370.37 341.233 378.922C345.679 383.115 348.563 388.16 349.558 394.1C350.56 400.083 349.713 407.394 345.966 416.157C337.455 436.059 331.958 467.403 332.093 499.887C332.228 532.362 337.993 566.894 352.808 592.884C360.251 605.942 370.067 616.993 382.738 624.429C395.452 631.889 410.72 635.519 428.703 634.198C464.398 631.575 510.788 609.464 570.572 559.238C618.021 519.375 653.793 495.561 680.371 483.151C707.214 470.616 723.374 470.31 732.668 474.962C741.666 479.465 746.416 489.811 747.305 504.739C748.182 519.481 745.131 537.127 740.272 553.458L740.265 553.479L740.259 553.5C728.785 593.22 723.487 637.359 731.573 675.349C739.716 713.612 761.548 745.851 804.073 760.333C846.11 774.65 907.43 771.268 994.026 741.196C1080.75 711.077 1193.56 653.932 1339.06 559.642C1484.62 465.314 1573.14 383.682 1619.91 313.443C1666.81 243.017 1672.04 183.49 1649.86 134.402C1627.88 85.7626 1579.57 48.7429 1522.33 21.6408C1464.96 -5.52401 1397.82 -23.1138 1336.91 -32.4367L1336.49 -32.5H1336.07H-103H-108.5V-27V418.319Z" stroke="white" stroke-width="11" shape-rendering="crispEdges"/>
</g>
<defs>
<filter id="filter0_d_17_39" x="-128" y="-38" width="1804.01" height="847.001" filterUnits="userSpaceOnUse" color-interpolation-filters="sRGB">
<feFlood flood-opacity="0" result="BackgroundImageFix"/>
<feColorMatrix in="SourceAlpha" type="matrix" values="0 0 0 0 0 0 0 0 0 0 0 0 0 0 0 0 0 0 127 0" result="hardAlpha"/>
<feOffset dx="-3" dy="24"/>
<feGaussianBlur stdDeviation="5.5"/>
<feComposite in2="hardAlpha" operator="out"/>
<feColorMatrix type="matrix" values="0 0 0 0 0 0 0 0 0 0 0 0 0 0 0 0 0 0 0.35 0"/>
<feBlend mode="normal" in2="BackgroundImageFix" result="effect1_dropShadow_17_39"/>
<feBlend mode="normal" in="SourceGraphic" in2="effect1_dropShadow_17_39" result="shape"/>
</filter>
<linearGradient id="paint0_linear_17_39" x1="777" y1="-27" x2="777" y2="763" gradientUnits="userSpaceOnUse">
<stop stop-color="#A26DFF"/>
<stop offset="1"/>
</linearGradient>
</defs>
</svg>
